<?xml version="1.0" encoding="UTF-8" standalone="no"?>
<svg
   height="2000px"
   viewBox="0 -960 960 960"
   width="2000px"
   fill="#e8eaed"
   version="1.1"
   id="svg1"
   sodipodi:docname="spen-remote.svg"
   xml:space="preserve"
   inkscape:version="1.4 (86a8ad7, 2024-10-11)"
   xmlns:inkscape="http://www.inkscape.org/namespaces/inkscape"
   xmlns:sodipodi="http://sodipodi.sourceforge.net/DTD/sodipodi-0.dtd"
   xmlns="http://www.w3.org/2000/svg"
   xmlns:svg="http://www.w3.org/2000/svg"><defs
     id="defs1" /><sodipodi:namedview
     id="namedview1"
     pagecolor="#ffffff"
     bordercolor="#000000"
     borderopacity="0.25"
     inkscape:showpageshadow="2"
     inkscape:pageopacity="0.0"
     inkscape:pagecheckerboard="0"
     inkscape:deskcolor="#d1d1d1"
     showgrid="false"
     inkscape:zoom="17.265191"
     inkscape:cx="7.2979212"
     inkscape:cy="12.510722"
     inkscape:window-width="1440"
     inkscape:window-height="830"
     inkscape:window-x="-6"
     inkscape:window-y="-6"
     inkscape:window-maximized="1"
     inkscape:current-layer="svg1" /><g
     style="fill:#e8eaed"
     id="g1"
     transform="translate(71.553442,-89.57392)"><g
       id="g2"
       transform="translate(0,64.859799)"><path
         d="m 226,-774 -56,-56 c 39.33333,-41.33333 85.5,-73.33333 138.5,-96 53,-22.66667 110.16667,-34 171.5,-34 61.33333,0 118.5,11.33333 171.5,34 53,22.66667 99.16667,54.66667 138.5,96 l -56,56 c -32,-33.33333 -69.83333,-59.33333 -113.5,-78 -43.66667,-18.66667 -90.5,-28 -140.5,-28 -50,0 -96.83333,9.33333 -140.5,28 -43.66667,18.66667 -81.5,44.66667 -113.5,78 z m 112,112 -56,-56 c 25.33333,-25.33333 54.83333,-45.33333 88.5,-60 33.66667,-14.66667 70.16667,-22 109.5,-22 39.33333,0 75.83333,7.33333 109.5,22 33.66667,14.66667 63.16667,34.66667 88.5,60 l -56,56 c -18,-18 -39.16667,-32.16667 -63.5,-42.5 C 534.16667,-714.83333 508,-720 480,-720 c -28,0 -54.16667,5.16667 -78.5,15.5 -24.33333,10.33333 -45.5,24.5 -63.5,42.5 z"
         id="path1"
         style="display:inline"
         sodipodi:nodetypes="ccsssccssscccsssccsssc"
         transform="translate(-71.553442,89.57392)" /><path
         d="m 194.97227,-40.96297 q -14.37352,3.350899 -24.98255,-7.036888 -10.60901,-10.387794 -7.18675,-24.461577 L 190.18109,-200.46586 325.70283,-67.770174 Z M 325.70283,-67.770174 190.18109,-200.46586 503.66067,-507.40838 q 15.74243,-15.41414 39.01383,-15.41414 23.27142,0 39.01384,15.41414 l 57.49407,56.29513 q 15.74243,15.41415 15.74243,38.20027 0,22.78613 -15.74243,38.20027 z m 216.97167,-402.108116 -283.36363,277.4546 58.17852,56.96532 283.36365,-277.45461 z"
         id="path1-8"
         style="display:inline;stroke-width:0.677279" /></g></g></svg>
